<svg width="512" height="512" viewBox="0 0 512 512" fill="none" xmlns="http://www.w3.org/2000/svg">
<path d="M75.1775 369.284L23.8355 367.487C23.8355 360.641 23.8355 351.742 23.8355 340.789C24.0066 329.836 24.0922 317.856 24.0922 304.849C24.2633 291.843 24.4345 278.579 24.6056 265.059C24.7768 251.539 24.9479 238.789 25.1191 226.81C25.2902 214.659 25.4613 204.048 25.6325 194.977C25.8036 185.907 25.9748 179.404 26.1459 175.467C37.7834 175.467 50.1055 175.382 63.1121 175.211C76.1188 175.04 88.7831 174.869 101.105 174.697C113.598 174.355 124.979 174.098 135.248 173.927C145.516 173.585 153.731 173.243 159.892 172.9L158.865 198.058L72.097 194.464C72.7815 212.776 73.295 230.917 73.6372 248.887L156.041 246.319L154.244 274.044L74.1507 269.423C74.8352 303.994 75.1775 337.28 75.1775 369.284ZM320.426 369.284C316.49 369.112 309.986 368.941 300.916 368.77C291.845 368.599 280.807 368.428 267.8 368.257C254.965 368.257 240.76 368.171 225.186 368C209.784 368 193.782 368 177.182 368C175.641 332.745 174.529 299.202 173.844 267.37C173.16 235.538 172.818 204.561 172.818 174.441C176.754 174.27 183.599 174.184 193.354 174.184C203.109 174.013 214.062 173.927 226.213 173.927C226.213 186.42 226.128 200.197 225.957 215.258C225.957 230.318 225.785 245.72 225.443 261.465C225.272 277.21 225.015 292.613 224.673 307.673C224.502 322.562 224.16 336.339 223.646 349.003C241.445 349.003 258.73 348.832 275.502 348.49C292.273 347.977 306.991 347.378 319.656 346.693L320.426 369.284ZM329.32 369.027C329.32 362.352 329.32 353.539 329.32 342.586C329.32 331.633 329.32 319.567 329.32 306.39C329.492 293.212 329.577 279.777 329.577 266.086C329.577 252.395 329.577 239.303 329.577 226.81C329.748 214.316 329.919 203.363 330.091 193.951C330.262 184.538 330.433 177.607 330.604 173.157L376.812 174.697C376.298 188.389 375.87 203.877 375.528 221.162C375.357 238.276 375.186 255.732 375.015 273.531C388.364 258.47 401.37 242.469 414.035 225.526C426.699 208.583 439.535 190.186 452.541 170.333L487.454 178.035C472.393 198.4 455.108 219.194 435.598 240.415C442.273 252.053 449.118 264.803 456.135 278.665C463.152 292.356 469.912 306.561 476.415 321.279C483.09 335.826 489.251 350.287 494.898 364.663C485.828 366.203 476.843 367.315 467.944 368C459.045 368.856 449.803 369.284 440.219 369.284C437.481 360.384 434.144 350.629 430.207 340.019C426.442 329.237 422.249 318.198 417.629 306.903C413.008 295.608 408.302 284.569 403.51 273.787C394.268 283.029 384.684 292.271 374.758 301.512C374.587 313.492 374.501 325.044 374.501 336.168C374.501 347.292 374.501 357.732 374.501 367.487L329.32 369.027Z" fill="url(#paint0_linear_445_674)"/>
<defs>
<linearGradient id="paint0_linear_445_674" x1="11" y1="101" x2="501" y2="101" gradientUnits="userSpaceOnUse">
<stop stop-color="#A478E8"/>
<stop offset="1" stop-color="#516CF7"/>
</linearGradient>
</defs>
</svg>
